<svg width="155" height="92" viewBox="0 0 155 92" fill="none" xmlns="http://www.w3.org/2000/svg">
<mask id="mask0_615_16342" style="mask-type:alpha" maskUnits="userSpaceOnUse" x="51" y="26" width="63" height="60">
<path d="M52.148 53.2595C52.112 52.8453 52.1625 52.4281 52.2963 52.0345C52.4302 51.6408 52.6443 51.2793 52.9253 50.9728C53.2063 50.6663 53.5479 50.4215 53.9284 50.2541C54.309 50.0866 54.7202 50.0001 55.136 50H60.8645C61.6601 50 62.4232 50.3161 62.9858 50.8787C63.5484 51.4413 63.8645 52.2043 63.8645 53V81.5C63.8645 82.2956 63.5484 83.0587 62.9858 83.6213C62.4232 84.1839 61.6601 84.5 60.8645 84.5H57.6155C56.8646 84.5002 56.141 84.2188 55.5875 83.7114C55.034 83.204 54.6909 82.5075 54.626 81.7595L52.148 53.2595ZM72.8645 52.0625C72.8645 50.8085 73.6445 49.6865 74.777 49.1525C77.2505 47.9855 81.464 45.641 83.3645 42.4715C85.814 38.3855 86.276 31.004 86.351 29.3135C86.3615 29.0765 86.3555 28.8395 86.387 28.6055C86.7935 25.676 92.447 29.0975 94.6145 32.7155C95.792 34.6775 95.942 37.256 95.819 39.2705C95.6855 41.4245 95.054 43.505 94.4345 45.572L93.1145 49.9775H109.4C109.863 49.9775 110.321 50.0848 110.736 50.2912C111.151 50.4975 111.512 50.7973 111.792 51.1668C112.072 51.5364 112.262 51.9658 112.348 52.4212C112.434 52.8767 112.413 53.3459 112.287 53.792L104.232 82.316C104.055 82.9451 103.676 83.4989 103.155 83.8931C102.633 84.2873 101.997 84.5004 101.343 84.5H75.8645C75.0688 84.5 74.3058 84.1839 73.7431 83.6213C73.1805 83.0587 72.8645 82.2956 72.8645 81.5V52.0625Z" fill="white" stroke="white" stroke-width="2" stroke-linecap="round" stroke-linejoin="round"/>
</mask>
<g mask="url(#mask0_615_16342)">
<path d="M45.8652 20H117.865V92H45.8652V20Z" fill="#010C14"/>
</g>
<mask id="mask1_615_16342" style="mask-type:alpha" maskUnits="userSpaceOnUse" x="122" y="25" width="23" height="24">
<path d="M123.981 38.5182C123.917 38.3948 123.881 38.2596 123.873 38.1212C123.865 37.9829 123.885 37.8444 123.934 37.7145C123.982 37.5846 124.057 37.4661 124.153 37.3666C124.25 37.2672 124.366 37.1888 124.494 37.1366L126.263 36.4177C126.509 36.3178 126.784 36.3196 127.028 36.4228C127.273 36.5259 127.466 36.7219 127.566 36.9676L131.143 45.7685C131.243 46.0142 131.241 46.2895 131.138 46.5338C131.035 46.7782 130.839 46.9716 130.593 47.0714L129.59 47.4792C129.358 47.5735 129.099 47.5774 128.864 47.4902C128.63 47.403 128.437 47.2309 128.323 47.0081L123.981 38.5182ZM130.228 35.5485C130.07 35.1613 130.17 34.7169 130.453 34.4099C131.07 33.7391 132.077 32.4863 132.266 31.269C132.51 29.6998 131.726 27.3624 131.537 26.8309C131.511 26.7564 131.479 26.684 131.459 26.6078C131.217 25.6521 133.393 25.9992 134.516 26.8444C135.126 27.3025 135.496 28.0799 135.711 28.7174C135.94 29.3994 136.006 30.1211 136.074 30.8371L136.219 32.3632L141.248 30.3193C141.391 30.2612 141.546 30.2369 141.7 30.2486C141.854 30.2602 142.003 30.3074 142.136 30.3864C142.269 30.4654 142.382 30.5741 142.465 30.704C142.549 30.8338 142.602 30.9813 142.619 31.1349L143.711 40.9541C143.735 41.1707 143.688 41.3892 143.576 41.5764C143.465 41.7636 143.295 41.9092 143.093 41.9912L135.225 45.1889C134.979 45.2887 134.704 45.2869 134.46 45.1837C134.215 45.0806 134.022 44.8847 133.922 44.639L130.228 35.5485Z" fill="white" stroke="white" stroke-width="2" stroke-linecap="round" stroke-linejoin="round"/>
</mask>
<g mask="url(#mask1_615_16342)">
<path d="M117.865 29.0361L140.099 19.9999L149.135 42.2338L126.901 51.27L117.865 29.0361Z" fill="#010C14"/>
</g>
<mask id="mask2_615_16342" style="mask-type:alpha" maskUnits="userSpaceOnUse" x="9" y="31" width="29" height="32">
<path d="M10.466 49.0912C10.3828 48.9262 10.3348 48.7457 10.325 48.5611C10.3152 48.3766 10.3439 48.1921 10.4093 48.0192C10.4746 47.8464 10.5752 47.689 10.7046 47.5571C10.834 47.4251 10.9894 47.3215 11.1609 47.2529L13.5248 46.3072C13.8531 46.1759 14.2202 46.1803 14.5452 46.3196C14.8702 46.4589 15.1266 46.7216 15.258 47.0499L19.9628 58.8104C20.0941 59.1387 20.0896 59.5058 19.9504 59.8308C19.8111 60.1559 19.5484 60.4123 19.2201 60.5436L17.8794 61.0799C17.5695 61.204 17.2245 61.2073 16.9123 61.0893C16.6002 60.9713 16.3436 60.7405 16.1933 60.4426L10.466 49.0912ZM18.8171 45.1773C18.61 44.6599 18.7467 44.0681 19.1259 43.6608C19.9539 42.7709 21.3056 41.1079 21.5666 39.4863C21.9029 37.3958 20.875 34.2736 20.6268 33.5636C20.592 33.4641 20.5504 33.3673 20.5248 33.2655C20.209 31.9896 23.1067 32.4682 24.5984 33.6033C25.4081 34.2185 25.8957 35.2578 26.1775 36.1094C26.478 37.0203 26.5609 37.983 26.6464 38.9382L26.829 40.9741L33.5492 38.2857C33.7405 38.2091 33.9469 38.178 34.1522 38.1946C34.3575 38.2112 34.5562 38.2752 34.7327 38.3815C34.9091 38.4879 35.0585 38.6336 35.1692 38.8074C35.2798 38.9812 35.3487 39.1782 35.3704 39.383L36.7553 52.4832C36.7858 52.7721 36.721 53.0631 36.5709 53.3119C36.4208 53.5607 36.1935 53.7536 35.9237 53.8613L25.4098 58.0674C25.0815 58.1987 24.7144 58.1943 24.3894 58.055C24.0643 57.9157 23.8079 57.653 23.6766 57.3247L18.8171 45.1773Z" fill="white" stroke="white" stroke-width="2" stroke-linecap="round" stroke-linejoin="round"/>
</mask>
<g mask="url(#mask2_615_16342)">
<path d="M2.38281 36.4038L32.0936 24.518L43.9793 54.2288L14.2686 66.1145L2.38281 36.4038Z" fill="#010C14"/>
</g>
<mask id="mask3_615_16342" style="mask-type:alpha" maskUnits="userSpaceOnUse" x="62" y="4" width="18" height="16">
<path d="M64.0725 8.42318C64.0927 8.32121 64.1339 8.22457 64.1934 8.13936C64.2529 8.05416 64.3295 7.98226 64.4183 7.92824C64.5071 7.87421 64.6062 7.83923 64.7092 7.82551C64.8123 7.8118 64.917 7.81966 65.0169 7.84858L66.3923 8.24743C66.5834 8.30282 66.7446 8.43184 66.8405 8.6061C66.9364 8.78036 66.9592 8.98558 66.9038 9.17663L64.9195 16.0197C64.8641 16.2108 64.7351 16.372 64.5608 16.4679C64.3865 16.5638 64.1813 16.5866 63.9903 16.5312L63.2102 16.305C63.0299 16.2527 62.8757 16.1348 62.7781 15.9744C62.6806 15.8141 62.6467 15.6229 62.6832 15.4388L64.0725 8.42318ZM69.13 9.57815C69.2174 9.27705 69.4828 9.06196 69.7919 9.01259C70.467 8.9046 71.642 8.63502 72.319 8.00632C73.1916 7.19578 73.8165 5.45558 73.9522 5.0549C73.9712 4.99872 73.9863 4.9414 74.0101 4.88741C74.3117 4.21231 75.4309 5.42747 75.6994 6.4471C75.8456 7.00017 75.7021 7.62974 75.5323 8.10487C75.3502 8.61277 75.0538 9.06835 74.7611 9.52153L74.1374 10.4874L78.0477 11.6213C78.159 11.6536 78.2613 11.7112 78.3466 11.7896C78.4319 11.8681 78.4978 11.9652 78.5393 12.0734C78.5807 12.1816 78.5965 12.298 78.5855 12.4133C78.5744 12.5287 78.5367 12.6399 78.4755 12.7382L74.5554 19.0263C74.4689 19.1649 74.3395 19.2716 74.1868 19.3299C74.0341 19.3883 73.8666 19.3952 73.7097 19.3495L67.5919 17.5756C67.4009 17.5202 67.2397 17.3911 67.1437 17.2169C67.0478 17.0426 67.0251 16.8374 67.0805 16.6464L69.13 9.57815Z" fill="white" stroke="white" stroke-linecap="round" stroke-linejoin="round"/>
</mask>
<g mask="url(#mask3_615_16342)">
<path d="M64.8789 0L82.1668 5.01298L77.1538 22.3008L59.8659 17.2879L64.8789 0Z" fill="#010C14"/>
</g>
</svg>
